<svg width="1820" height="480" viewBox="0 0 1820 480" fill="none" xmlns="http://www.w3.org/2000/svg">
<g clip-path="url(#clip0_1403_15515)">
<path d="M653.375 94.0625C664.131 115.458 670.145 139.359 670.145 164.61C670.145 213.665 647.411 257.709 611.373 287.874V480H1820V94.0625H653.375Z" fill="#ED8516"/>
<path d="M97.3079 94.0625H0V480H97.3079V94.0625Z" fill="white"/>
<path d="M175.449 94.0625H126.82V480H175.449V94.0625Z" fill="white"/>
<path d="M285.194 94.0625H236.566V480H285.194V94.0625Z" fill="white"/>
<path d="M203.536 94.0625H188.855V480H203.536V94.0625Z" fill="white"/>
<path d="M909.465 373.601H868.025L850.591 285.273C847.89 273.226 846.004 258.962 844.882 242.482L843.913 251.011L838.918 285.706L821.945 373.553H780.503L748.186 204.991H780.758L796.713 300.114C798.242 309.656 800.331 324.594 802.931 344.977C804.971 324.401 806.857 309.656 808.64 300.837L827.654 205.04H862.06L881.073 300.837C883.571 315.053 885.609 329.846 887.037 345.218C889.891 322.474 891.93 307.439 893.255 300.163L908.752 205.04H941.578L909.516 373.601H909.465Z" fill="white"/>
<path d="M1057.34 373.602H976.953V205.04H1057.34V232.122H1010.14V272.262H1053.92V299.489H1010.14V346.183H1057.34V373.602Z" fill="white"/>
<path d="M1164.48 373.602L1130.58 230.05H1129.26C1130.8 241.133 1131.55 251.253 1131.55 260.505V373.602H1100.82V205.04H1151.79L1182.28 337.509H1183.25L1213.47 205.04H1265.16V373.602H1233.71V259.348C1233.71 249.903 1234.27 240.217 1235.39 230.291H1234.42L1200.63 373.602H1164.39H1164.48Z" fill="white"/>
<path d="M1398.56 373.601L1388.31 331.051H1341.82L1331.57 373.601H1298.39L1342.53 204.365H1387.54L1431.79 373.601H1398.51H1398.56ZM1382.09 303.295L1372.56 264.118C1371.99 261.757 1370.73 255.782 1368.74 246.192C1366.75 236.603 1365.52 230.242 1365.12 227.014C1364.04 233.615 1362.72 240.892 1361.08 248.843C1359.46 256.794 1355.23 274.961 1348.4 303.295H1382.04H1382.09Z" fill="white"/>
<path d="M1465.07 373.602V205.04H1498.25V346.183H1544.23V373.602H1465.07Z" fill="white"/>
<path d="M1695.62 289.08C1695.62 316.98 1690.12 338.424 1679.06 353.411C1667.99 368.397 1652.2 375.914 1631.6 375.914C1611.01 375.914 1595.11 368.445 1584.05 353.507C1572.98 338.569 1567.48 317.029 1567.48 288.887C1567.48 260.745 1572.98 239.591 1584.05 224.749C1595.11 209.859 1611.06 202.438 1631.86 202.438C1652.66 202.438 1668.21 209.907 1679.16 224.845C1690.12 239.783 1695.62 261.227 1695.62 289.128V289.08ZM1601.32 289.08C1601.32 308.307 1603.88 322.956 1609.02 333.027C1614.17 343.098 1621.66 348.11 1631.6 348.11C1651.58 348.11 1661.63 328.449 1661.63 289.08C1661.63 249.71 1651.69 230.049 1631.86 230.049C1621.77 230.049 1614.17 235.061 1609.07 245.084C1603.97 255.107 1601.38 269.756 1601.38 289.08H1601.32Z" fill="white"/>
<path d="M496.02 329.22C592.188 329.22 670.146 255.522 670.146 164.61C670.146 73.6984 592.188 0 496.02 0C399.854 0 321.896 73.6984 321.896 164.61C321.896 255.522 399.854 329.22 496.02 329.22Z" fill="white"/>
<path d="M496.021 292.404C570.679 292.404 631.201 235.188 631.201 164.61C631.201 94.0307 570.679 36.8152 496.021 36.8152C421.362 36.8152 360.84 94.0307 360.84 164.61C360.84 235.188 421.362 292.404 496.021 292.404Z" fill="#F1D1A8"/>
<path d="M496.021 36.8152C482.463 36.8152 469.363 38.7427 457.027 42.2604V287.007C469.363 290.525 482.463 292.452 496.021 292.452C570.698 292.452 631.202 235.253 631.202 164.658C631.202 94.0624 570.698 36.8634 496.021 36.8634V36.8152Z" fill="#BE9E77"/>
<path d="M461.715 228.17L596.438 117.771L574.722 94.0625L461.918 186.487L431.794 153.623L409.875 171.597L461.715 228.121V228.17Z" fill="white"/>
<path d="M535.881 324.835V480.001H584.51V306.379C569.574 314.716 553.212 321.029 535.881 324.884V324.835Z" fill="white"/>
<path d="M502.342 329.075V480H517.022V328.015C512.179 328.545 507.287 328.931 502.342 329.123V329.075Z" fill="white"/>
<path d="M419.713 312.595V480H461.868V326.04C447.035 323.245 432.915 318.715 419.713 312.595Z" fill="white"/>
<path d="M321.897 164.61C321.897 139.359 327.912 115.41 338.667 94.0625H311.906V480H404.728V304.837C355.03 275.827 321.846 223.929 321.846 164.658L321.897 164.61Z" fill="white"/>
</g>
<defs>
<clipPath id="clip0_1403_15515">
<rect width="1820" height="480" fill="white"/>
</clipPath>
</defs>
</svg>
